<?xml version="1.0" encoding="utf-8"?>
<!-- Generator: Adobe Illustrator 15.1.0, SVG Export Plug-In . SVG Version: 6.00 Build 0)  -->
<!DOCTYPE svg PUBLIC "-//W3C//DTD SVG 1.1//EN" "http://www.w3.org/Graphics/SVG/1.1/DTD/svg11.dtd">
<svg version="1.1" id="Artwork" xmlns="http://www.w3.org/2000/svg" xmlns:xlink="http://www.w3.org/1999/xlink" x="0px" y="0px"
	 width="50px" height="50px" viewBox="0 0 50 50" enable-background="new 0 0 50 50" xml:space="preserve">
<g>
	<path fill="#FFFFFF" d="M44.053,24.991c-0.265-0.926-1.102-3.527-1.631-4.408c-1.632-2.602-4.057-5.291-6.879-6.703
		c-0.793,1.279-1.808,2.161-3.086,2.955c-4.542,2.689-11.156,0.176-13.096-3.439c-1.234-2.337-2.91-6.041-5.556-6.702
		c-0.573,1.676-1.367,3.616-0.485,7.849c-0.309,0.353-1.455,1.322-2.293,1.939c-1.367,1.015-3.792,4.057-4.232,5.865
		c-1.014-0.045-3.263-0.177-3.924,0.484c-0.882,0.882-0.793,6.79-0.309,8.686c0.529,1.146,3.086,0.706,3.616,0.838
		c0.44,1.588,0.882,2.338,1.322,3.439c1.808,3.043,5.115,6.217,7.849,7.363c0,1.19-0.132,3.924,0.176,4.586
		c0.485,1.322,2.646,0.881,4.409,0.838c0.309-0.221,1.146-0.088,1.146-3.439c1.675,0.441,6.923,0.484,8.687-0.176
		c0.088,1.102-0.089,1.807,0.176,2.601c0.088,0.309,0.044,0.309,0.662,0.838c1.058,0.22,3.307,0.353,4.1,0
		c1.014-0.617,0.794-1.058,0.838-5.071c0.133-0.176,2.117-0.881,2.469-1.146c1.809-1.323,2.998-2.558,3.748-3.748
		c0.883-1.455,1.455-2.998,1.94-4.762c0.661-2.293,0.661-3.616,0.617-3.792c3.13-0.265,3.438-1.764,3.483-2.557
		C47.713,26.358,46.963,24.728,44.053,24.991z M15.525,24.021c-1.543,0-2.822-1.103-3.13-2.513c0.396,0.529,1.014,0.881,1.72,0.881
		c1.19,0,2.116-0.97,2.116-2.115c0-1.191-0.97-2.117-2.116-2.117c-0.132,0-0.221,0-0.353,0.045c0.485-0.309,1.103-0.529,1.764-0.529
		c1.764,0,3.175,1.41,3.175,3.174S17.289,24.021,15.525,24.021z"/>
	<path fill="#FFFFFF" d="M27.959,1.314c-3.748,0-6.79,3.042-6.79,6.79s3.042,6.79,6.79,6.79c3.748,0,6.791-3.042,6.791-6.79
		S31.707,1.314,27.959,1.314z M28.355,11.411v1.146h-1.102v-1.059c-0.75-0.043-1.455-0.22-1.896-0.484l0.353-1.322
		c0.484,0.264,1.146,0.484,1.852,0.484c0.617,0,1.059-0.265,1.059-0.705c0-0.441-0.354-0.706-1.191-0.971
		c-1.189-0.396-2.028-0.97-2.028-2.027c0-0.971,0.706-1.764,1.896-1.984V3.431H28.4v0.971c0.75,0.043,1.234,0.176,1.631,0.352
		l-0.309,1.279c-0.309-0.133-0.793-0.396-1.631-0.396c-0.705,0-0.971,0.309-0.971,0.617c0,0.353,0.397,0.617,1.323,0.97
		c1.323,0.485,1.853,1.103,1.853,2.072C30.34,10.353,29.635,11.19,28.355,11.411z"/>
</g>
</svg>
