<?xml version="1.0" encoding="utf-8"?>
<!-- Generator: Adobe Illustrator 15.1.0, SVG Export Plug-In . SVG Version: 6.00 Build 0)  -->
<!DOCTYPE svg PUBLIC "-//W3C//DTD SVG 1.1//EN" "http://www.w3.org/Graphics/SVG/1.1/DTD/svg11.dtd">
<svg version="1.1" id="Artwork" xmlns="http://www.w3.org/2000/svg" xmlns:xlink="http://www.w3.org/1999/xlink" x="0px" y="0px"
	 width="50px" height="50px" viewBox="0 0 50 50" enable-background="new 0 0 50 50" xml:space="preserve">
<path id="XMLID_2_" fill="#FFFFFF" d="M38.193,20.059c0,2.387-0.812,4.598-2.422,6.62c-1.611,2.022-3.822,3.634-6.609,4.81
	s-5.82,1.764-9.102,1.764c-1.481,0-2.986-0.141-4.539-0.411c-2.129,1.517-4.516,2.61-7.161,3.292
	c-0.624,0.153-1.353,0.295-2.211,0.412H6.067c-0.188,0-0.364-0.07-0.529-0.212s-0.259-0.317-0.294-0.541
	c-0.012-0.047-0.023-0.105-0.023-0.165c0-0.059,0-0.117,0.012-0.164s0.023-0.105,0.047-0.152l0.059-0.13
	c0,0,0.035-0.047,0.094-0.142c0.06-0.094,0.095-0.141,0.106-0.129s0.047-0.035,0.118-0.129c0.07-0.094,0.105-0.13,0.105-0.117
	c0.082-0.106,0.282-0.318,0.588-0.647s0.529-0.576,0.67-0.765c0.141-0.176,0.33-0.436,0.576-0.752
	c0.247-0.318,0.459-0.646,0.646-0.988c0.188-0.341,0.354-0.717,0.529-1.129c-2.128-1.234-3.798-2.752-5.021-4.563
	c-1.223-1.799-1.834-3.728-1.834-5.773c0-2.387,0.812-4.598,2.423-6.621c1.61-2.021,3.821-3.633,6.608-4.809s5.82-1.764,9.102-1.764
	s6.314,0.588,9.102,1.764s4.998,2.775,6.609,4.809C37.37,15.461,38.193,17.672,38.193,20.059L38.193,20.059z M48.083,26.655
	c0,2.058-0.612,3.986-1.835,5.786c-1.223,1.799-2.893,3.304-5.021,4.551c0.178,0.411,0.354,0.787,0.529,1.129
	c0.177,0.34,0.4,0.67,0.647,0.987s0.446,0.564,0.576,0.753c0.142,0.176,0.364,0.435,0.67,0.764c0.306,0.33,0.506,0.541,0.589,0.646
	c0.012,0.012,0.047,0.059,0.105,0.118c0.047,0.059,0.094,0.106,0.117,0.13s0.059,0.07,0.105,0.129s0.07,0.105,0.094,0.141l0.06,0.13
	c0,0,0.012,0.047,0.047,0.153c0.035,0.105,0.035,0.164,0.012,0.164c-0.023,0.012-0.035,0.059-0.023,0.164
	c-0.047,0.236-0.165,0.436-0.329,0.564c-0.176,0.142-0.365,0.2-0.564,0.177c-0.858-0.118-1.6-0.259-2.211-0.411
	c-2.646-0.682-5.033-1.787-7.161-3.293c-1.54,0.271-3.058,0.412-4.539,0.412c-4.657,0-8.702-1.129-12.159-3.398
	c1,0.07,1.752,0.105,2.27,0.105c2.764,0,5.422-0.389,7.961-1.164c2.54-0.776,4.81-1.882,6.797-3.328
	c2.152-1.576,3.799-3.398,4.951-5.456s1.729-4.245,1.729-6.538c0-1.316-0.2-2.623-0.588-3.916c2.211,1.223,3.963,2.752,5.256,4.586
	S48.083,24.539,48.083,26.655L48.083,26.655z"/>
</svg>
