<?xml version="1.0" encoding="utf-8"?>
<!-- Generator: Adobe Illustrator 15.1.0, SVG Export Plug-In . SVG Version: 6.00 Build 0)  -->
<!DOCTYPE svg PUBLIC "-//W3C//DTD SVG 1.1//EN" "http://www.w3.org/Graphics/SVG/1.1/DTD/svg11.dtd">
<svg version="1.1" id="Artwork" xmlns="http://www.w3.org/2000/svg" xmlns:xlink="http://www.w3.org/1999/xlink" x="0px" y="0px"
	 width="50px" height="50px" viewBox="0 0 50 50" enable-background="new 0 0 50 50" xml:space="preserve">
<g>
	<path fill="#FFFFFF" d="M26.806,4.572l-3.791,0.016c-1.552,0.006-2.814,1.279-2.824,2.846l0.111,23.484l-10.015-9.935
		c-1.109-1.1-2.911-1.084-4.004,0.017l-2.661,2.683c-1.1,1.109-1.086,2.911,0.016,4.002l19.449,19.294
		c0.559,0.553,1.28,0.828,2.006,0.811c0.741-0.002,1.458-0.284,1.998-0.828l19.293-19.448c1.101-1.11,1.086-2.912-0.016-4.004
		l-2.682-2.662c-1.109-1.1-2.912-1.085-4.006,0.017l-9.933,10.014L29.653,7.396C29.64,5.821,28.365,4.558,26.806,4.572z"/>
</g>
</svg>
