<?xml version="1.0" encoding="utf-8"?>
<!-- Generator: Adobe Illustrator 15.1.0, SVG Export Plug-In . SVG Version: 6.00 Build 0)  -->
<!DOCTYPE svg PUBLIC "-//W3C//DTD SVG 1.1//EN" "http://www.w3.org/Graphics/SVG/1.1/DTD/svg11.dtd">
<svg version="1.1" id="Artwork" xmlns="http://www.w3.org/2000/svg" xmlns:xlink="http://www.w3.org/1999/xlink" x="0px" y="0px"
	 width="50px" height="50px" viewBox="0 0 50 50" enable-background="new 0 0 50 50" xml:space="preserve">
<path fill="#FFFFFF" d="M24.894,2.917c-12.3,0-22.272,9.972-22.272,22.271c0,12.3,9.972,22.272,22.272,22.272
	c1.505,0,2.975-0.153,4.398-0.435c-0.576-0.271-0.635-2.328-0.07-3.505c0.635-1.306,2.61-4.609,0.646-5.715
	c-1.952-1.105-1.411-1.61-2.61-2.893s-0.705-1.481-0.788-1.812c-0.259-1.129,1.152-2.822,1.224-2.998
	c0.07-0.176,0.07-0.823,0.047-1.023c-0.023-0.199-0.895-0.717-1.105-0.74c-0.212-0.023-0.33,0.353-0.635,0.364
	c-0.307,0.023-1.635-0.8-1.917-1.022c-0.282-0.225-0.412-0.741-0.8-1.129c-0.388-0.389-0.435-0.083-1.046-0.33
	c-0.612-0.234-2.563-0.952-4.069-1.563c-1.505-0.612-1.635-1.458-1.658-2.07c-0.023-0.6-0.917-1.481-1.329-2.105
	c-0.423-0.635-0.494-1.505-0.647-1.305s0.788,2.481,0.635,2.54c-0.153,0.07-0.482-0.635-0.917-1.2
	c-0.435-0.564,0.459-0.258-0.94-2.999c-1.399-2.74,0.435-4.139,0.517-5.574c0.083-1.435,1.176,0.518,0.612-0.388
	c-0.564-0.917,0.047-2.822-0.388-3.527c-0.435-0.694-2.917,0.788-2.917,0.788c0.071-0.67,2.176-1.823,3.692-2.893
	c1.517-1.07,2.458-0.235,3.681,0.153c1.223,0.388,1.305,0.259,0.894-0.129c-0.412-0.388,0.176-0.588,1.129-0.435
	c0.952,0.153,1.223,1.305,2.681,1.199c1.458-0.105,0.153,0.282,0.353,0.647c0.2,0.364-0.212,0.329-1.176,0.976
	c-0.964,0.646,0.023,0.646,1.717,1.893c1.693,1.235,1.176-0.823,1-1.74c-0.177-0.917,1.234-0.2,1.234-0.2
	c1.047,0.694,0.848,0.036,1.611,0.282c0.765,0.235,2.822,1.987,2.822,1.987c-2.587,1.411-0.952,1.564-0.518,1.894
	c0.436,0.329-0.893,0.952-0.893,0.952c-0.541-0.541-0.636,0.024-0.977,0.212c-0.354,0.2-0.023,0.694-0.023,0.694
	c-1.799,0.282-1.388,2.175-1.376,2.634c0.023,0.459-1.152,1.152-1.458,1.811c-0.306,0.647,0.787,2.07,0.211,2.152
	c-0.564,0.083-1.128-2.128-4.174-1.305c-0.917,0.247-2.963,1.305-1.87,3.457c1.082,2.152,2.893-0.611,3.504-0.306
	c0.612,0.306-0.176,1.67-0.047,1.693s1.717,0.059,1.811,1.917c0.094,1.858,2.41,1.692,2.916,1.74
	c0.506,0.047,2.176-1.376,2.41-1.435c0.236-0.07,1.2-0.87,3.281,0.329c2.094,1.2,3.152,1.022,3.869,1.517
	c0.717,0.506,0.211,1.506,0.894,1.823c0.671,0.329,3.375-0.106,4.045,0.999c0.671,1.105-2.786,6.68-3.868,7.291
	s-1.588,1.999-2.682,2.893c-1.082,0.895-2.61,1.999-4.045,2.846c-1.27,0.753-1.506,2.105-2.07,2.54
	c9.973-2.21,17.428-11.112,17.428-21.743C47.178,12.888,37.206,2.917,24.894,2.917z M30.115,23.824
	c-0.306,0.082-0.941,0.646-2.48-0.259c-1.541-0.906-2.611-0.741-2.741-0.894c0,0-0.129-0.365,0.541-0.435
	c1.387-0.129,3.127,1.282,3.528,1.305c0.389,0.023,0.588-0.388,1.281-0.165C30.95,23.601,30.421,23.742,30.115,23.824z
	 M22.836,5.139c-0.153-0.106,0.129-0.235,0.294-0.458c0.094-0.129,0.023-0.341,0.141-0.458c0.329-0.33,1.94-0.788,1.623,0.105
	C24.577,5.221,23.071,5.315,22.836,5.139z M26.729,7.973c-0.541-0.023-1.823-0.153-1.587-0.388c0.917-0.917-0.353-1.176-1.129-1.234
	c-0.788-0.071-1.105-0.506-0.717-0.541c0.388-0.047,1.952,0.023,2.223,0.235c0.271,0.211,1.67,0.788,1.764,1.199
	C27.363,7.644,27.27,7.984,26.729,7.973z M31.443,7.82c-0.435,0.353-2.621-1.247-3.045-1.611c-1.822-1.564-2.811-1.047-3.187-1.305
	c-0.388-0.259-0.247-0.612,0.341-1.129c0.588-0.518,2.246,0.176,3.198,0.282c0.952,0.105,2.069,0.847,2.093,1.729
	C30.855,6.656,31.879,7.467,31.443,7.82z"/>
</svg>
