<?xml version="1.0" encoding="utf-8"?>
<!-- Generator: Adobe Illustrator 15.1.0, SVG Export Plug-In . SVG Version: 6.00 Build 0)  -->
<!DOCTYPE svg PUBLIC "-//W3C//DTD SVG 1.1//EN" "http://www.w3.org/Graphics/SVG/1.1/DTD/svg11.dtd">
<svg version="1.1" id="Layer_1" xmlns="http://www.w3.org/2000/svg" xmlns:xlink="http://www.w3.org/1999/xlink" x="0px" y="0px"
	 width="50px" height="50px" viewBox="0 0 50 50" enable-background="new 0 0 50 50" xml:space="preserve">
<g>
	<path fill="#FFFFFF" d="M47.839,28.353c-0.143,0.192-0.381,0.334-0.666,0.334c-0.046,0-0.046,0-0.095,0
		c-0.237,0-0.475-0.047-0.665-0.237L24.899,10.496L3.384,28.449c-0.237,0.142-0.475,0.237-0.76,0.237
		c-0.237-0.047-0.475-0.142-0.665-0.334l-1.947-2.278c-0.333-0.38-0.285-1.045,0.143-1.377l22.37-18.618
		c1.282-1.093,3.42-1.093,4.702,0l7.6,6.364V6.364c0-0.57,0.427-0.998,0.997-0.998h5.984c0.569,0,0.998,0.428,0.998,0.998v12.681
		l6.791,5.652c0.427,0.332,0.475,0.997,0.143,1.377L47.839,28.353z M42.852,43.125c0,1.092-0.902,1.994-1.994,1.994H28.937V33.198
		h-7.979v11.921H9.036c-1.092,0-1.995-0.901-1.995-1.994V28.212c0-0.049,0.047-0.144,0.047-0.19l17.858-14.723l17.858,14.723
		c0.047,0.047,0.047,0.142,0.047,0.19V43.125z"/>
</g>
</svg>
