<?xml version="1.0" encoding="utf-8"?>
<!-- Generator: Adobe Illustrator 15.1.0, SVG Export Plug-In . SVG Version: 6.00 Build 0)  -->
<!DOCTYPE svg PUBLIC "-//W3C//DTD SVG 1.1//EN" "http://www.w3.org/Graphics/SVG/1.1/DTD/svg11.dtd">
<svg version="1.1" id="Layer_1" xmlns="http://www.w3.org/2000/svg" xmlns:xlink="http://www.w3.org/1999/xlink" x="0px" y="0px"
	 width="50px" height="50px" viewBox="0 0 50 50" enable-background="new 0 0 50 50" xml:space="preserve">
<path fill="#FFFFFF" d="M7.326,36.087h35.098c1.445,0,2.609,1.163,2.609,2.608V40c0,1.445-1.174,2.609-2.609,2.609H7.326
	c-1.446,0-2.609-1.175-2.609-2.609v-1.305C4.707,37.25,5.88,36.087,7.326,36.087z"/>
<path fill="#FFFFFF" d="M7.326,21.728h35.098c1.445,0,2.609,1.174,2.609,2.609v1.304c0,1.446-1.174,2.609-2.609,2.609H7.326
	c-1.446,0-2.609-1.163-2.609-2.609v-1.304C4.707,22.902,5.88,21.728,7.326,21.728z"/>
<path fill="#FFFFFF" d="M7.543,7.489h35.097c1.446,0,2.609,1.174,2.609,2.608v1.305c0,1.445-1.174,2.608-2.609,2.608H7.543
	c-1.446,0-2.609-1.163-2.609-2.608v-1.305C4.924,8.652,6.098,7.489,7.543,7.489z"/>
</svg>
