<?xml version="1.0" encoding="utf-8"?>
<!-- Generator: Adobe Illustrator 15.1.0, SVG Export Plug-In . SVG Version: 6.00 Build 0)  -->
<!DOCTYPE svg PUBLIC "-//W3C//DTD SVG 1.1//EN" "http://www.w3.org/Graphics/SVG/1.1/DTD/svg11.dtd">
<svg version="1.1" id="Artwork" xmlns="http://www.w3.org/2000/svg" xmlns:xlink="http://www.w3.org/1999/xlink" x="0px" y="0px"
	 width="50px" height="50px" viewBox="0 0 50 50" enable-background="new 0 0 50 50" xml:space="preserve">
<g>
	<path fill="#FFFFFF" d="M18.782,18.265c-1.367,0-2.072,1.587-2.072,3.615c-0.044,2.072,0.706,3.615,2.072,3.615
		s2.028-1.455,2.028-3.615C20.811,19.896,20.237,18.265,18.782,18.265z"/>
	<path fill="#FFFFFF" d="M31.217,25.76c-1.367,0-2.072,1.587-2.072,3.616c-0.045,2.072,0.705,3.615,2.072,3.615
		c1.366,0,2.027-1.455,2.027-3.615C33.244,27.347,32.672,25.76,31.217,25.76z"/>
	<path fill="#FFFFFF" d="M45.017,26.906c-3.483-2.072-3.747-4.453-0.705-7.187c3.042-2.734,2.513-4.013-1.544-3.836
		c-4.057,0.132-5.555-1.721-4.496-5.645c1.058-3.924-0.045-4.717-3.396-2.381c-3.35,2.337-5.6,1.543-6.834-2.336
		c-1.234-3.881-2.601-3.925-4.144-0.178c-1.543,3.748-3.88,4.322-7.011,1.721s-4.321-1.896-3.571,2.115
		c0.75,4.014-0.926,5.732-4.938,5.248c-4.056-0.485-4.674,0.749-1.896,3.703s2.337,5.336-1.323,7.1
		c-3.659,1.764-3.527,3.13,0.397,4.145c3.924,1.014,4.85,3.219,2.734,6.701c-2.117,3.483-1.279,4.541,2.601,3.264
		c3.836-1.279,5.82,0.088,5.909,4.145c0.088,4.056,1.367,4.496,3.924,1.322c2.558-3.175,4.938-3.086,7.231,0.309
		c2.249,3.395,3.615,3.043,4.057-1.014s2.514-5.248,6.217-3.66c3.748,1.631,4.674,0.617,2.866-3.043
		c-1.808-3.615-0.749-5.775,3.263-6.437C48.279,30.345,48.544,28.979,45.017,26.906z M14.108,22.013
		c0-3.396,1.984-5.645,4.718-5.645c2.866,0,4.542,2.117,4.542,5.336c0,3.791-2.205,5.688-4.674,5.688
		C16.181,27.436,14.153,25.495,14.108,22.013z M20.722,34.976h-1.94l10.45-18.607h1.939L20.722,34.976z M31.128,34.887
		c-2.513,0-4.585-1.94-4.585-5.423c0-3.396,1.983-5.645,4.717-5.645c2.866,0,4.542,2.117,4.542,5.38
		C35.802,32.946,33.598,34.887,31.128,34.887z"/>
</g>
</svg>
