<?xml version="1.0" encoding="utf-8"?>
<!-- Generator: Adobe Illustrator 15.1.0, SVG Export Plug-In . SVG Version: 6.00 Build 0)  -->
<!DOCTYPE svg PUBLIC "-//W3C//DTD SVG 1.1//EN" "http://www.w3.org/Graphics/SVG/1.1/DTD/svg11.dtd">
<svg version="1.1" id="Artwork" xmlns="http://www.w3.org/2000/svg" xmlns:xlink="http://www.w3.org/1999/xlink" x="0px" y="0px"
	 width="50px" height="50px" viewBox="0 0 50 50" enable-background="new 0 0 50 50" xml:space="preserve">
<path fill="#FFFFFF" d="M49.729,18.416C47.584,5.847,36.19,5.447,36.19,5.447s-5.481,0-11.137,0c-0.038,0-0.075,0-0.106,0
	c-5.656,0-11.137,0-11.137,0S2.416,5.847,0.272,18.416c-0.744,4.362,2.331,3.925,2.331,3.925h5.506c3.456,0,3.331-3.9,3.331-3.9
	c0.55-3.056,2.413-6.788,8.294-6.788h5.212h0.106h5.212c5.881,0,7.744,3.731,8.287,6.788c0,0-0.118,3.9,3.332,3.9h5.506
	C47.396,22.34,50.472,22.778,49.729,18.416z"/>
<path fill="#FFFFFF" d="M42.065,32.753c-5.6-9.931-8.399-13.962-8.399-13.962H16.56L7.534,33.996c0,0-6.219,10.557,7.156,10.557
	s24.575,0,24.575,0S47.666,42.684,42.065,32.753z M25.347,39.309c-4.306,0-7.793-3.48-7.793-7.774s3.487-7.775,7.793-7.775
	c4.3,0,7.794,3.481,7.794,7.775S29.653,39.309,25.347,39.309z"/>
</svg>
