<?xml version="1.0" encoding="utf-8"?>
<!-- Generator: Adobe Illustrator 15.1.0, SVG Export Plug-In . SVG Version: 6.00 Build 0)  -->
<!DOCTYPE svg PUBLIC "-//W3C//DTD SVG 1.1//EN" "http://www.w3.org/Graphics/SVG/1.1/DTD/svg11.dtd">
<svg version="1.1" id="Artwork" xmlns="http://www.w3.org/2000/svg" xmlns:xlink="http://www.w3.org/1999/xlink" x="0px" y="0px"
	 width="50px" height="50px" viewBox="0 0 50 50" enable-background="new 0 0 50 50" xml:space="preserve">
<g>
	<path fill="#FFFFFF" d="M38.228,48.214H11.816c-4.806,0-8.069-2.909-8.069-7.804c0-6.834,1.587-17.328,10.45-17.328
		c0.926,0,4.894,4.188,10.803,4.188c5.908,0,9.877-4.188,10.803-4.188c8.861,0,10.449,10.494,10.449,17.328
		C46.297,45.26,43.033,48.214,38.228,48.214z M25.044,24.979c-6.393,0-11.596-5.203-11.596-11.597S18.651,1.785,25.044,1.785
		c6.394,0,11.597,5.203,11.597,11.597S31.438,24.979,25.044,24.979z"/>
</g>
</svg>
